<svg width="24" height="24" viewBox="0 0 24 24" fill="none" xmlns="http://www.w3.org/2000/svg">
<path d="M13.5374 12.2281C13.5374 15.9988 10.5069 19.0556 6.76883 19.0556C3.03073 19.0556 0 15.9981 0 12.2281C0 8.45806 3.0305 5.40039 6.76883 5.40039C10.5072 5.40039 13.5374 8.45737 13.5374 12.2281Z" fill="white"/>
<path d="M20.9632 12.2285C20.9632 15.7778 19.4479 18.6563 17.5788 18.6563C15.7096 18.6563 14.1943 15.7778 14.1943 12.2285C14.1943 8.67922 15.7094 5.80078 17.5785 5.80078C19.4477 5.80078 20.9629 8.67829 20.9629 12.2285" fill="white"/>
<path d="M23.9995 12.228C23.9995 15.4073 23.4667 17.9862 22.8092 17.9862C22.1517 17.9862 21.6191 15.408 21.6191 12.228C21.6191 9.04797 22.152 6.46973 22.8092 6.46973C23.4665 6.46973 23.9995 9.04774 23.9995 12.228Z" fill="white"/>
</svg>
